HIERARCHY
ROOT Hips
{
    OFFSET 0.000000 0.000000 0.000000
    CHANNELS 6 Xposition Yposition Zposition Zrotation Xrotation Yrotation
    JOINT Spine
    {
        OFFSET -0.000000 7.236184 0.000000
        CHANNELS 3 Zrotation Xrotation Yrotation
        JOINT Spine1
        {
            OFFSET -0.000000 20.420147 0.000000
            CHANNELS 3 Zrotation Xrotation Yrotation
            JOINT Neck
            {
                OFFSET -0.000000 20.336288 1.848754
                CHANNELS 3 Zrotation Xrotation Yrotation
                JOINT Head
                {
                    OFFSET -0.000000 12.354461 -1.764923
                    CHANNELS 3 Zrotation Xrotation Yrotation
                    End Site
                    {
                        OFFSET -0.000000 22.061537 0.000000
                    }
                }
            }
            JOINT LeftShoulder
            {
                OFFSET 3.573296 18.396038 -0.314103
                CHANNELS 3 Zrotation Xrotation Yrotation
                JOINT LeftArm
                {
                    OFFSET 10.880760 0.000000 0.000000
                    CHANNELS 3 Zrotation Xrotation Yrotation
                    JOINT LeftForeArm
                    {
                        OFFSET 27.185530 0.000000 0.000000
                        CHANNELS 3 Zrotation Xrotation Yrotation
                        JOINT LeftHand
                        {
                            OFFSET 27.825975 0.000000 0.000000
                            CHANNELS 3 Zrotation Xrotation Yrotation
                            End Site
                            {
                                OFFSET 13.236923 0.000000 0.000000
                            }
                        }
                    }
                }
            }
            JOINT RightShoulder
            {
                OFFSET -3.474926 18.396038 -0.314103
                CHANNELS 3 Zrotation Xrotation Yrotation
                JOINT RightArm
                {
                    OFFSET -10.880760 0.000000 0.000000
                    CHANNELS 3 Zrotation Xrotation Yrotation
                    JOINT RightForeArm
                    {
                        OFFSET -27.185530 0.000000 0.000000
                        CHANNELS 3 Zrotation Xrotation Yrotation
                        JOINT RightHand
                        {
                            OFFSET -27.825975 0.000000 0.000000
                            CHANNELS 3 Zrotation Xrotation Yrotation
                            End Site
                            {
                                OFFSET -13.236923 0.000000 0.000000
                            }
                        }
                    }
                }
            }
        }
    }
    JOINT LeftUpLeg
    {
        OFFSET 8.824615 0.000000 0.000000
        CHANNELS 3 Zrotation Xrotation Yrotation
        JOINT LeftLeg
        {
            OFFSET -0.000000 -35.111282 0.000000
            CHANNELS 3 Zrotation Xrotation Yrotation
            JOINT LeftFoot
            {
                OFFSET -0.000000 -42.324711 0.000000
                CHANNELS 3 Zrotation Xrotation Yrotation
                JOINT LeftToeBase
                {
                    OFFSET -0.000000 -5.735999 13.236923
                    CHANNELS 3 Zrotation Xrotation Yrotation
                    End Site
                    {
                        OFFSET -0.000000 0.000000 3.529846
                    }
                }
            }
        }
    }
    JOINT RightUpLeg
    {
        OFFSET -8.824615 0.000000 0.000000
        CHANNELS 3 Zrotation Xrotation Yrotation
        JOINT RightLeg
        {
            OFFSET -0.000000 -35.111282 0.000000
            CHANNELS 3 Zrotation Xrotation Yrotation
            JOINT RightFoot
            {
                OFFSET -0.000000 -42.324711 0.000000
                CHANNELS 3 Zrotation Xrotation Yrotation
                JOINT RightToeBase
                {
                    OFFSET -0.000000 -5.735999 13.236923
                    CHANNELS 3 Zrotation Xrotation Yrotation
                    End Site
                    {
                        OFFSET -0.000000 0.000000 3.529846
                    }
                }
            }
        }
    }
}
MOTION
Frames:    14
Frame Time:    0.008333
6.590271    82.443214    113.962685    -2.132762    -15.143134    -179.817657    -3.208850    -15.940105    0.335422    0.661613    10.382056    0.724747    3.126357    3.094769    -1.591217    5.080062    -6.575512    -1.024555    1.586679    16.267750    -5.309584    -33.620667    47.213165    -50.101830    1.425582    -3.243168    -14.358900    18.462872    -2.938926    0.769716    3.349748    18.839336    -0.102258    34.619678    49.277855    47.523346    -7.251695    -6.782337    17.436790    -17.612471    -5.339013    -2.180966    8.609593    -20.058861    0.315849    0.052982    15.071113    4.496114    -12.138378    -7.855898    -11.422833    0.243924    1.632188    -0.269598    -15.542726    -10.773581    -0.808867    3.666581    2.173992    -2.321054    8.898502    -3.964761    -13.395044    -1.238855    0.872859    1.338320    
6.590694    82.441452    113.951584    -2.116041    -15.161970    -179.782211    -3.204247    -15.933081    0.340623    0.647308    10.389695    0.730325    3.130154    3.084236    -1.611732    5.099391    -6.578764    -1.042683    1.585324    16.271830    -5.305509    -33.714184    47.122807    -50.054066    1.442586    -3.249741    -14.349492    18.474056    -2.938532    0.799746    3.346429    18.822229    -0.088945    34.303883    49.400726    47.727749    -7.240432    -6.526443    17.600571    -17.695927    -5.088806    -2.072484    8.615496    -20.112061    0.204102    0.031268    15.129786    4.600165    -12.145981    -7.872762    -11.432245    0.255912    1.648860    -0.282839    -15.531089    -10.771524    -0.834261    3.663968    2.173193    -2.324902    8.897532    -3.972640    -13.404369    -1.249415    0.878983    1.349717    
6.591006    82.439758    113.940582    -2.099674    -15.180445    -179.747192    -3.199379    -15.925983    0.345769    0.632669    10.397005    0.735869    3.133894    3.073500    -1.631640    5.118054    -6.581580    -1.060312    1.583711    16.276075    -5.301478    -33.806221    47.034256    -50.008308    1.459917    -3.256828    -14.341493    18.486420    -2.938549    0.829847    3.343153    18.805023    -0.076126    33.996601    49.517319    47.926025    -7.228809    -6.280490    17.761368    -17.780106    -4.848570    -1.966990    8.621120    -20.165012    0.100750    0.011349    15.188694    4.695892    -12.152821    -7.890133    -11.441799    0.268016    1.665689    -0.296209    -15.519840    -10.769674    -0.860384    3.661547    2.173006    -2.328524    8.896600    -3.980387    -13.412718    -1.259575    0.884651    1.360682    
6.591113    82.438126    113.929596    -2.083786    -15.198393    -179.712540    -3.193609    -15.918728    0.350901    0.616453    10.403592    0.741396    3.138066    3.063408    -1.650523    5.135799    -6.584209    -1.077081    1.582269    16.280519    -5.297255    -33.896046    46.948895    -49.965996    1.477931    -3.265053    -14.336088    18.500517    -2.939582    0.860086    3.340263    18.787910    -0.063354    33.702557    49.625050    48.113808    -7.214261    -6.052035    17.918360    -17.862606    -4.626103    -1.866151    8.626125    -20.217995    0.012500    -0.004656    15.248693    4.775695    -12.159132    -7.908572    -11.451163    0.280420    1.682593    -0.309908    -15.509151    -10.768003    -0.888150    3.659143    2.173854    -2.331462    8.896031    -3.988071    -13.419408    -1.269107    0.889689    1.370970    
6.590939    82.436562    113.918671    -2.068589    -15.215738    -179.678482    -3.187035    -15.911365    0.356004    0.599063    10.409494    0.746922    3.142233    3.053027    -1.668054    5.151913    -6.585978    -1.092850    1.580281    16.285246    -5.292843    -33.982124    46.867962    -49.928570    1.496903    -3.274862    -14.334429    18.516636    -2.941975    0.890477    3.337270    18.770866    -0.051481    33.426140    49.722733    48.288059    -7.195861    -5.847539    18.070568    -17.941137    -4.427686    -1.772620    8.630405    -20.271015    -0.057186    -0.016049    15.310060    4.835876    -12.165564    -7.928264    -11.460384    0.292948    1.699131    -0.323744    -15.499243    -10.766776    -0.917929    3.656794    2.176205    -2.333975    8.895751    -3.995682    -13.423511    -1.277374    0.893358    1.379892    
6.590436    82.435097    113.907768    -2.054059    -15.232501    -179.644806    -3.179387    -15.904077    0.361059    0.580222    10.414852    0.752375    3.146244    3.042902    -1.684043    5.166221    -6.587327    -1.107375    1.577774    16.290136    -5.288402    -34.063828    46.792572    -49.896896    1.517440    -3.286810    -14.337337    18.534538    -2.946218    0.920766    3.333927    18.753775    -0.040201    33.169556    49.811562    48.446476    -7.175365    -5.671365    18.218145    -18.013411    -4.257074    -1.688518    8.633938    -20.323792    -0.109558    -0.023210    15.372176    4.877254    -12.172311    -7.948938    -11.469150    0.305516    1.715457    -0.337623    -15.490108    -10.766066    -0.949909    3.654532    2.180225    -2.337164    8.895775    -4.003087    -13.423669    -1.284004    0.896130    1.387050    
6.589569    82.433716    113.896919    -2.040246    -15.248668    -179.611511    -3.170425    -15.896338    0.366042    0.559614    10.419302    0.757789    3.149993    3.032232    -1.698318    5.178382    -6.587657    -1.120561    1.574748    16.294989    -5.283683    -34.140388    46.723484    -49.872066    1.539225    -3.300843    -14.345485    18.554024    -2.952440    0.950294    3.330117    18.736435    -0.029784    32.935146    49.892891    48.587086    -7.155043    -5.526206    18.361279    -18.077724    -4.116300    -1.615618    8.636633    -20.375679    -0.149473    -0.027330    15.434010    4.905048    -12.179620    -7.970116    -11.477705    0.317951    1.731597    -0.351356    -15.481815    -10.766006    -0.984052    3.652209    2.186144    -2.341251    8.896072    -4.010263    -13.419500    -1.288402    0.897247    1.391798    
6.588315    82.432411    113.886032    -2.027108    -15.264195    -179.578430    -3.159295    -15.888676    0.371076    0.535490    10.423394    0.763262    3.154822    3.021453    -1.710574    5.187624    -6.587376    -1.132402    1.572383    16.299986    -5.279175    -34.211166    46.661327    -49.854836    1.562768    -3.317215    -14.359263    18.574318    -2.960933    0.978217    3.327051    18.718998    -0.019704    32.723858    49.967999    48.708179    -7.137259    -5.413246    18.500238    -18.133160    -4.005968    -1.555114    8.638553    -20.425756    -0.183284    -0.030289    15.493949    4.926502    -12.187674    -7.990844    -11.486705    0.330262    1.746799    -0.364951    -15.474263    -10.766398    -1.020125    3.649668    2.193853    -2.347346    8.896705    -4.017085    -13.409986    -1.290385    0.896957    1.393941    
6.586683    82.431175    113.875259    -2.014662    -15.278979    -179.545639    -3.143934    -15.880129    0.376350    0.503189    10.425626    0.769013    3.164785    3.011108    -1.720131    5.192159    -6.586589    -1.142944    1.574126    16.305723    -5.274274    -34.275841    46.606895    -49.846745    1.587585    -3.335249    -14.378107    18.595076    -2.971300    1.003235    3.328830    18.701574    -0.009524    32.537109    50.037037    48.806984    -7.123060    -5.332485    18.634178    -18.179525    -3.925769    -1.507499    8.639752    -20.473385    -0.214586    -0.033129    15.550886    4.945827    -12.196220    -8.010589    -11.496473    0.342370    1.761343    -0.378321    -15.467473    -10.767331    -1.057179    3.647027    2.203289    -2.356802    8.897493    -4.023359    -13.394603    -1.289501    0.895127    1.392990    
6.584658    82.430008    113.864494    -2.002714    -15.293260    -179.512741    -3.130734    -15.872373    0.381046    0.478550    10.430099    0.773961    3.164924    2.997161    -1.729061    5.197723    -6.583331    -1.151697    1.568016    16.308691    -5.270205    -34.329010    46.562340    -49.847088    1.613403    -3.356163    -14.405086    18.615503    -2.984708    1.025908    3.322353    18.683441    -0.002145    32.377342    50.098972    48.888779    -7.112114    -5.279695    18.761826    -18.218451    -3.871825    -1.471173    8.640349    -20.519468    -0.243582    -0.036018    15.605938    4.963021    -12.205231    -8.029789    -11.507083    0.354377    1.775831    -0.391579    -15.461315    -10.768778    -1.094593    3.644127    2.214267    -2.370988    8.898809    -4.029171    -13.373222    -1.286434    0.892055    1.389682    
6.582251    82.428886    113.853790    -1.991233    -15.307016    -179.479675    -3.113220    -15.864043    0.385929    0.445986    10.433479    0.779142    3.169671    2.983133    -1.735386    5.198495    -6.579622    -1.159287    1.565489    16.312098    -5.266200    -34.373951    46.526299    -49.857910    1.640474    -3.378623    -14.437616    18.635283    -2.999979    1.044972    3.320901    18.665264    0.005274    32.241978    50.153957    48.948967    -7.104003    -5.254282    18.883553    -18.250759    -3.843565    -1.446004    8.640273    -20.564665    -0.266851    -0.037895    15.660225    4.974382    -12.214642    -8.048919    -11.518552    0.366235    1.789771    -0.404672    -15.455730    -10.770635    -1.131315    3.641009    2.226490    -2.391536    8.901217    -4.034740    -13.345799    -1.282024    0.888677    1.384924    
6.579472    82.427803    113.843140    -1.980018    -15.320322    -179.446167    -3.092634    -15.855483    0.390763    0.408715    10.436654    0.784174    3.176137    2.968567    -1.739607    5.195584    -6.575525    -1.165620    1.564515    16.315123    -5.262432    -34.409111    46.499489    -49.879894    1.668409    -3.402475    -14.476383    18.653831    -3.016957    1.060896    3.321704    18.647257    0.011988    32.130642    50.200985    48.989967    -7.097488    -5.253549    18.998678    -18.278084    -3.838693    -1.430857    8.639633    -20.610006    -0.281546    -0.037956    15.715342    4.976586    -12.224271    -8.068650    -11.530890    0.377908    1.803351    -0.417560    -15.450566    -10.772761    -1.166489    3.637633    2.239565    -2.420391    8.905577    -4.040232    -13.312223    -1.277788    0.885684    1.380355    
6.576309    82.426720    113.832596    -1.969150    -15.333127    -179.412247    -3.069015    -15.846485    0.395372    0.366231    10.439404    0.789196    3.185210    2.953555    -1.741671    5.188846    -6.571118    -1.170866    1.565700    16.318377    -5.258980    -34.433865    46.481453    -49.913956    1.696935    -3.427053    -14.520525    18.670393    -3.035057    1.073416    3.326454    18.629684    0.018306    32.042301    50.239029    49.011696    -7.091401    -5.275399    19.106455    -18.301451    -3.855441    -1.424680    8.638293    -20.655861    -0.286224    -0.035731    15.772010    4.968448    -12.234085    -8.089251    -11.544435    0.389408    1.816527    -0.430257    -15.445992    -10.774953    -1.199082    3.634169    2.253045    -2.459165    8.912485    -4.045734    -13.272356    -1.274485    0.883604    1.376790    
6.572744    82.425575    113.822197    -1.958797    -15.345060    -179.378082    -3.045024    -15.837508    0.399546    0.323886    10.443120    0.793620    3.193504    2.937867    -1.742189    5.179173    -6.566609    -1.174988    1.566163    16.320953    -5.256834    -34.447231    46.472561    -49.959587    1.725644    -3.452036    -14.570033    18.684307    -3.053896    1.083144    3.331655    18.612860    0.023367    31.975861    50.267254    49.017376    -7.084716    -5.317306    19.205441    -18.321417    -3.891740    -1.426258    8.635940    -20.701881    -0.281554    -0.031197    15.830124    4.951302    -12.243938    -8.110486    -11.559818    0.400571    1.829476    -0.442581    -15.442101    -10.776877    -1.228904    3.630504    2.266735    -2.509503    8.922277    -4.050838    -13.224562    -1.272187    0.882504    1.374310    
